<svg width="36" height="31" viewBox="0 0 36 31" fill="none" xmlns="http://www.w3.org/2000/svg">
<path d="M25.0971 27.541V24.8147C25.0971 23.3686 24.5226 21.9817 23.5001 20.9592C22.4776 19.9366 21.0907 19.3622 19.6446 19.3622H8.73956C7.29347 19.3622 5.9066 19.9366 4.88405 20.9592C3.86151 21.9817 3.28705 23.3686 3.28705 24.8147V27.541" stroke="white" stroke-width="5" stroke-linecap="round" stroke-linejoin="round"/>
<path d="M14.1921 13.9095C17.2034 13.9095 19.6446 11.4684 19.6446 8.45703C19.6446 5.44569 17.2034 3.00452 14.1921 3.00452C11.1807 3.00452 8.73956 5.44569 8.73956 8.45703C8.73956 11.4684 11.1807 13.9095 14.1921 13.9095Z" stroke="white" stroke-width="5" stroke-linecap="round" stroke-linejoin="round"/>
<path d="M33.2759 27.5409V24.8146C33.275 23.6065 32.8729 22.4329 32.1327 21.4781C31.3926 20.5233 30.3563 19.8413 29.1865 19.5393" stroke="white" stroke-width="5" stroke-linecap="round" stroke-linejoin="round"/>
<path d="M23.7339 3.18176C24.9068 3.48206 25.9464 4.16417 26.6887 5.12055C27.4311 6.07694 27.834 7.2532 27.834 8.46389C27.834 9.67458 27.4311 10.8508 26.6887 11.8072C25.9464 12.7636 24.9068 13.4457 23.7339 13.746" stroke="white" stroke-width="5" stroke-linecap="round" stroke-linejoin="round"/>
</svg>
