<svg width="32" height="32" viewBox="0 0 32 32" fill="none" xmlns="http://www.w3.org/2000/svg">
<path d="M5.33333 26.6667C4.6 26.6667 3.97245 26.4058 3.45067 25.884C2.92889 25.3623 2.66756 24.7343 2.66667 24V8.00004C2.66667 7.26671 2.928 6.63915 3.45067 6.11737C3.97333 5.5956 4.60089 5.33426 5.33333 5.33337H26.6667C27.4 5.33337 28.028 5.59471 28.5507 6.11737C29.0733 6.64004 29.3342 7.2676 29.3333 8.00004V24C29.3333 24.7334 29.0724 25.3614 28.5507 25.884C28.0289 26.4067 27.4009 26.6676 26.6667 26.6667H5.33333ZM16 17.3334L5.33333 10.6667V24H26.6667V10.6667L16 17.3334ZM16 14.6667L26.6667 8.00004H5.33333L16 14.6667ZM5.33333 10.6667V8.00004V24V10.6667Z" fill="black"/>
</svg>
