<svg width="32" height="32" viewBox="0 0 32 32" fill="none" xmlns="http://www.w3.org/2000/svg">
<path d="M10.4 2.66663H21.6C25.8666 2.66663 29.3333 6.13329 29.3333 10.4V21.6C29.3333 23.651 28.5185 25.618 27.0683 27.0683C25.618 28.5185 23.651 29.3333 21.6 29.3333H10.4C6.13329 29.3333 2.66663 25.8666 2.66663 21.6V10.4C2.66663 8.34895 3.48139 6.38195 4.93167 4.93167C6.38195 3.48139 8.34895 2.66663 10.4 2.66663ZM10.1333 5.33329C8.86025 5.33329 7.63935 5.83901 6.73918 6.73918C5.83901 7.63935 5.33329 8.86025 5.33329 10.1333V21.8666C5.33329 24.52 7.47996 26.6666 10.1333 26.6666H21.8666C23.1397 26.6666 24.3606 26.1609 25.2607 25.2607C26.1609 24.3606 26.6666 23.1397 26.6666 21.8666V10.1333C26.6666 7.47996 24.52 5.33329 21.8666 5.33329H10.1333ZM23 7.33329C23.442 7.33329 23.8659 7.50889 24.1785 7.82145C24.491 8.13401 24.6666 8.55793 24.6666 8.99996C24.6666 9.44199 24.491 9.86591 24.1785 10.1785C23.8659 10.491 23.442 10.6666 23 10.6666C22.5579 10.6666 22.134 10.491 21.8214 10.1785C21.5089 9.86591 21.3333 9.44199 21.3333 8.99996C21.3333 8.55793 21.5089 8.13401 21.8214 7.82145C22.134 7.50889 22.5579 7.33329 23 7.33329ZM16 9.33329C17.7681 9.33329 19.4638 10.0357 20.714 11.2859C21.9642 12.5362 22.6666 14.2318 22.6666 16C22.6666 17.7681 21.9642 19.4638 20.714 20.714C19.4638 21.9642 17.7681 22.6666 16 22.6666C14.2318 22.6666 12.5362 21.9642 11.2859 20.714C10.0357 19.4638 9.33329 17.7681 9.33329 16C9.33329 14.2318 10.0357 12.5362 11.2859 11.2859C12.5362 10.0357 14.2318 9.33329 16 9.33329ZM16 12C14.9391 12 13.9217 12.4214 13.1715 13.1715C12.4214 13.9217 12 14.9391 12 16C12 17.0608 12.4214 18.0782 13.1715 18.8284C13.9217 19.5785 14.9391 20 16 20C17.0608 20 18.0782 19.5785 18.8284 18.8284C19.5785 18.0782 20 17.0608 20 16C20 14.9391 19.5785 13.9217 18.8284 13.1715C18.0782 12.4214 17.0608 12 16 12Z" fill="white"/>
</svg>
