<svg width="32" height="32" viewBox="0 0 32 32" fill="none" xmlns="http://www.w3.org/2000/svg">
<path d="M25.3999 6.5467C24.1774 5.31217 22.7213 4.33332 21.1166 3.66718C19.5119 3.00104 17.7907 2.66094 16.0533 2.6667C8.77328 2.6667 2.83994 8.60003 2.83994 15.88C2.83994 18.2134 3.45328 20.48 4.59994 22.48L2.73328 29.3334L9.73328 27.4934C11.6666 28.5467 13.8399 29.1067 16.0533 29.1067C23.3333 29.1067 29.2666 23.1734 29.2666 15.8934C29.2666 12.36 27.8933 9.04003 25.3999 6.5467ZM16.0533 26.8667C14.0799 26.8667 12.1466 26.3334 10.4533 25.3334L10.0533 25.0934L5.89328 26.1867L6.99994 22.1334L6.73328 21.72C5.63667 19.9694 5.05451 17.9457 5.05328 15.88C5.05328 9.8267 9.98661 4.89336 16.0399 4.89336C18.9733 4.89336 21.7333 6.04003 23.7999 8.12003C24.8234 9.13852 25.6345 10.3501 26.1861 11.6845C26.7377 13.0189 27.0189 14.4495 27.0133 15.8934C27.0399 21.9467 22.1066 26.8667 16.0533 26.8667ZM22.0799 18.6534C21.7466 18.4934 20.1199 17.6934 19.8266 17.5734C19.5199 17.4667 19.3066 17.4134 19.0799 17.7334C18.8533 18.0667 18.2266 18.8134 18.0399 19.0267C17.8533 19.2534 17.6533 19.28 17.3199 19.1067C16.9866 18.9467 15.9199 18.5867 14.6666 17.4667C13.6799 16.5867 13.0266 15.5067 12.8266 15.1734C12.6399 14.84 12.7999 14.6667 12.9733 14.4934C13.1199 14.3467 13.3066 14.1067 13.4666 13.92C13.6266 13.7334 13.6933 13.5867 13.7999 13.3734C13.9066 13.1467 13.8533 12.96 13.7733 12.8C13.6933 12.64 13.0266 11.0134 12.7599 10.3467C12.4933 9.7067 12.2133 9.7867 12.0133 9.77336H11.3733C11.1466 9.77336 10.7999 9.85336 10.4933 10.1867C10.1999 10.52 9.34661 11.32 9.34661 12.9467C9.34661 14.5734 10.5333 16.1467 10.6933 16.36C10.8533 16.5867 13.0266 19.92 16.3333 21.3467C17.1199 21.6934 17.7333 21.8934 18.2133 22.04C18.9999 22.2934 19.7199 22.2534 20.2933 22.1734C20.9333 22.08 22.2533 21.3734 22.5199 20.6C22.7999 19.8267 22.7999 19.1734 22.7066 19.0267C22.6133 18.88 22.4133 18.8134 22.0799 18.6534Z" fill="white"/>
</svg>
