<svg width="32" height="32" viewBox="0 0 32 32" fill="none" xmlns="http://www.w3.org/2000/svg">
<path d="M21.8133 18.6666C21.92 17.7866 22 16.9066 22 16C22 15.0933 21.92 14.2133 21.8133 13.3333H26.32C26.5333 14.1866 26.6667 15.08 26.6667 16C26.6667 16.92 26.5333 17.8133 26.32 18.6666M19.4533 26.08C20.2533 24.6 20.8667 23 21.2933 21.3333H25.2267C23.9349 23.5577 21.8855 25.2426 19.4533 26.08ZM19.12 18.6666H12.88C12.7467 17.7866 12.6667 16.9066 12.6667 16C12.6667 15.0933 12.7467 14.2 12.88 13.3333H19.12C19.24 14.2 19.3333 15.0933 19.3333 16C19.3333 16.9066 19.24 17.7866 19.12 18.6666ZM16 26.6133C14.8933 25.0133 14 23.24 13.4533 21.3333H18.5467C18 23.24 17.1067 25.0133 16 26.6133ZM10.6667 10.6666H6.77333C8.05152 8.436 10.0995 6.74828 12.5333 5.91996C11.7333 7.39996 11.1333 8.99996 10.6667 10.6666ZM6.77333 21.3333H10.6667C11.1333 23 11.7333 24.6 12.5333 26.08C10.1044 25.243 8.05905 23.5575 6.77333 21.3333ZM5.68 18.6666C5.46667 17.8133 5.33333 16.92 5.33333 16C5.33333 15.08 5.46667 14.1866 5.68 13.3333H10.1867C10.08 14.2133 10 15.0933 10 16C10 16.9066 10.08 17.7866 10.1867 18.6666M16 5.37329C17.1067 6.97329 18 8.75996 18.5467 10.6666H13.4533C14 8.75996 14.8933 6.97329 16 5.37329ZM25.2267 10.6666H21.2933C20.8754 9.01544 20.2575 7.42143 19.4533 5.91996C21.9067 6.75996 23.9467 8.45329 25.2267 10.6666ZM16 2.66663C8.62667 2.66663 2.66667 8.66663 2.66667 16C2.66667 19.5362 4.07143 22.9276 6.57191 25.428C7.81003 26.6662 9.27988 27.6483 10.8976 28.3184C12.5152 28.9884 14.249 29.3333 16 29.3333C19.5362 29.3333 22.9276 27.9285 25.4281 25.428C27.9286 22.9276 29.3333 19.5362 29.3333 16C29.3333 14.249 28.9885 12.5152 28.3184 10.8975C27.6483 9.27984 26.6662 7.80998 25.4281 6.57187C24.19 5.33375 22.7201 4.35163 21.1024 3.68157C19.4848 3.0115 17.751 2.66663 16 2.66663Z" fill="black"/>
</svg>
